<mxfile host="app.diagrams.net" agent="Mozilla/5.0 (Windows NT 10.0; Win64; x64) AppleWebKit/537.36 (KHTML, like Gecko) Chrome/128.0.0.0 Safari/537.36" version="24.7.13">
  <diagram id="C5RBs43oDa-KdzZeNtuy" name="Page-1">
    <mxGraphModel dx="988" dy="351" grid="1" gridSize="10" guides="1" tooltips="1" connect="1" arrows="1" fold="1" page="1" pageScale="1" pageWidth="827" pageHeight="1169" math="0" shadow="0">
      <root>
        <mxCell id="WIyWlLk6GJQsqaUBKTNV-0" />
        <mxCell id="WIyWlLk6GJQsqaUBKTNV-1" parent="WIyWlLk6GJQsqaUBKTNV-0" />
        <mxCell id="NoZK8mIWvihNjDfT-P1Z-3" style="edgeStyle=orthogonalEdgeStyle;rounded=0;orthogonalLoop=1;jettySize=auto;html=1;exitX=0.5;exitY=1;exitDx=0;exitDy=0;entryX=0.5;entryY=0;entryDx=0;entryDy=0;" edge="1" parent="WIyWlLk6GJQsqaUBKTNV-1" source="NoZK8mIWvihNjDfT-P1Z-0" target="NoZK8mIWvihNjDfT-P1Z-1">
          <mxGeometry relative="1" as="geometry">
            <Array as="points">
              <mxPoint x="420" y="100" />
              <mxPoint x="120" y="100" />
            </Array>
          </mxGeometry>
        </mxCell>
        <mxCell id="NoZK8mIWvihNjDfT-P1Z-19" style="edgeStyle=orthogonalEdgeStyle;rounded=0;orthogonalLoop=1;jettySize=auto;html=1;entryX=0.5;entryY=0;entryDx=0;entryDy=0;" edge="1" parent="WIyWlLk6GJQsqaUBKTNV-1" source="NoZK8mIWvihNjDfT-P1Z-0" target="NoZK8mIWvihNjDfT-P1Z-18">
          <mxGeometry relative="1" as="geometry" />
        </mxCell>
        <mxCell id="NoZK8mIWvihNjDfT-P1Z-0" value="Ingreso al sistema" style="rounded=0;whiteSpace=wrap;html=1;" vertex="1" parent="WIyWlLk6GJQsqaUBKTNV-1">
          <mxGeometry x="360" y="40" width="120" height="40" as="geometry" />
        </mxCell>
        <mxCell id="NoZK8mIWvihNjDfT-P1Z-15" style="edgeStyle=orthogonalEdgeStyle;rounded=0;orthogonalLoop=1;jettySize=auto;html=1;entryX=0;entryY=0.5;entryDx=0;entryDy=0;" edge="1" parent="WIyWlLk6GJQsqaUBKTNV-1" source="NoZK8mIWvihNjDfT-P1Z-1" target="NoZK8mIWvihNjDfT-P1Z-9">
          <mxGeometry relative="1" as="geometry">
            <Array as="points">
              <mxPoint x="100" y="300" />
            </Array>
          </mxGeometry>
        </mxCell>
        <mxCell id="NoZK8mIWvihNjDfT-P1Z-16" style="edgeStyle=orthogonalEdgeStyle;rounded=0;orthogonalLoop=1;jettySize=auto;html=1;entryX=0;entryY=0.5;entryDx=0;entryDy=0;" edge="1" parent="WIyWlLk6GJQsqaUBKTNV-1" source="NoZK8mIWvihNjDfT-P1Z-1" target="NoZK8mIWvihNjDfT-P1Z-10">
          <mxGeometry relative="1" as="geometry">
            <Array as="points">
              <mxPoint x="100" y="350" />
            </Array>
          </mxGeometry>
        </mxCell>
        <mxCell id="NoZK8mIWvihNjDfT-P1Z-17" style="edgeStyle=orthogonalEdgeStyle;rounded=0;orthogonalLoop=1;jettySize=auto;html=1;entryX=0;entryY=0.5;entryDx=0;entryDy=0;" edge="1" parent="WIyWlLk6GJQsqaUBKTNV-1" source="NoZK8mIWvihNjDfT-P1Z-1" target="NoZK8mIWvihNjDfT-P1Z-11">
          <mxGeometry relative="1" as="geometry">
            <Array as="points">
              <mxPoint x="100" y="400" />
            </Array>
          </mxGeometry>
        </mxCell>
        <mxCell id="NoZK8mIWvihNjDfT-P1Z-1" value="Admin" style="rounded=0;whiteSpace=wrap;html=1;" vertex="1" parent="WIyWlLk6GJQsqaUBKTNV-1">
          <mxGeometry x="80" y="120" width="80" height="40" as="geometry" />
        </mxCell>
        <mxCell id="NoZK8mIWvihNjDfT-P1Z-26" style="edgeStyle=orthogonalEdgeStyle;rounded=0;orthogonalLoop=1;jettySize=auto;html=1;entryX=0.5;entryY=0;entryDx=0;entryDy=0;" edge="1" parent="WIyWlLk6GJQsqaUBKTNV-1" source="NoZK8mIWvihNjDfT-P1Z-2" target="NoZK8mIWvihNjDfT-P1Z-20">
          <mxGeometry relative="1" as="geometry" />
        </mxCell>
        <mxCell id="NoZK8mIWvihNjDfT-P1Z-2" value="Carga de Horas" style="rounded=0;whiteSpace=wrap;html=1;" vertex="1" parent="WIyWlLk6GJQsqaUBKTNV-1">
          <mxGeometry x="600" y="120" width="110" height="40" as="geometry" />
        </mxCell>
        <mxCell id="NoZK8mIWvihNjDfT-P1Z-6" style="edgeStyle=orthogonalEdgeStyle;rounded=0;orthogonalLoop=1;jettySize=auto;html=1;entryX=0.548;entryY=-0.008;entryDx=0;entryDy=0;entryPerimeter=0;exitX=0.5;exitY=1;exitDx=0;exitDy=0;" edge="1" parent="WIyWlLk6GJQsqaUBKTNV-1" source="NoZK8mIWvihNjDfT-P1Z-0" target="NoZK8mIWvihNjDfT-P1Z-2">
          <mxGeometry relative="1" as="geometry" />
        </mxCell>
        <mxCell id="NoZK8mIWvihNjDfT-P1Z-7" value="ABM&amp;nbsp;&lt;span style=&quot;background-color: initial;&quot;&gt;Empleados&lt;/span&gt;" style="rounded=0;whiteSpace=wrap;html=1;" vertex="1" parent="WIyWlLk6GJQsqaUBKTNV-1">
          <mxGeometry x="120" y="180" width="120" height="40" as="geometry" />
        </mxCell>
        <mxCell id="NoZK8mIWvihNjDfT-P1Z-8" value="ABM Equipos" style="rounded=0;whiteSpace=wrap;html=1;" vertex="1" parent="WIyWlLk6GJQsqaUBKTNV-1">
          <mxGeometry x="120" y="230" width="120" height="40" as="geometry" />
        </mxCell>
        <mxCell id="NoZK8mIWvihNjDfT-P1Z-9" value="ABM Oficinas" style="rounded=0;whiteSpace=wrap;html=1;" vertex="1" parent="WIyWlLk6GJQsqaUBKTNV-1">
          <mxGeometry x="120" y="280" width="120" height="40" as="geometry" />
        </mxCell>
        <mxCell id="NoZK8mIWvihNjDfT-P1Z-10" value="ABM Tareas" style="rounded=0;whiteSpace=wrap;html=1;" vertex="1" parent="WIyWlLk6GJQsqaUBKTNV-1">
          <mxGeometry x="120" y="330" width="120" height="40" as="geometry" />
        </mxCell>
        <mxCell id="NoZK8mIWvihNjDfT-P1Z-11" value="ABM Requerimientos" style="rounded=0;whiteSpace=wrap;html=1;" vertex="1" parent="WIyWlLk6GJQsqaUBKTNV-1">
          <mxGeometry x="120" y="380" width="120" height="40" as="geometry" />
        </mxCell>
        <mxCell id="NoZK8mIWvihNjDfT-P1Z-13" style="edgeStyle=orthogonalEdgeStyle;rounded=0;orthogonalLoop=1;jettySize=auto;html=1;entryX=0.005;entryY=0.594;entryDx=0;entryDy=0;entryPerimeter=0;" edge="1" parent="WIyWlLk6GJQsqaUBKTNV-1" source="NoZK8mIWvihNjDfT-P1Z-1" target="NoZK8mIWvihNjDfT-P1Z-7">
          <mxGeometry relative="1" as="geometry">
            <Array as="points">
              <mxPoint x="100" y="204" />
            </Array>
          </mxGeometry>
        </mxCell>
        <mxCell id="NoZK8mIWvihNjDfT-P1Z-14" style="edgeStyle=orthogonalEdgeStyle;rounded=0;orthogonalLoop=1;jettySize=auto;html=1;entryX=0;entryY=0.5;entryDx=0;entryDy=0;" edge="1" parent="WIyWlLk6GJQsqaUBKTNV-1" source="NoZK8mIWvihNjDfT-P1Z-1" target="NoZK8mIWvihNjDfT-P1Z-8">
          <mxGeometry relative="1" as="geometry">
            <mxPoint x="120" y="250" as="targetPoint" />
            <Array as="points">
              <mxPoint x="100" y="250" />
            </Array>
          </mxGeometry>
        </mxCell>
        <mxCell id="NoZK8mIWvihNjDfT-P1Z-76" style="edgeStyle=orthogonalEdgeStyle;rounded=0;orthogonalLoop=1;jettySize=auto;html=1;entryX=0;entryY=0.5;entryDx=0;entryDy=0;" edge="1" parent="WIyWlLk6GJQsqaUBKTNV-1" source="NoZK8mIWvihNjDfT-P1Z-18" target="NoZK8mIWvihNjDfT-P1Z-63">
          <mxGeometry relative="1" as="geometry">
            <Array as="points">
              <mxPoint x="340" y="250" />
            </Array>
          </mxGeometry>
        </mxCell>
        <mxCell id="NoZK8mIWvihNjDfT-P1Z-77" style="edgeStyle=orthogonalEdgeStyle;rounded=0;orthogonalLoop=1;jettySize=auto;html=1;entryX=0;entryY=0.5;entryDx=0;entryDy=0;" edge="1" parent="WIyWlLk6GJQsqaUBKTNV-1" source="NoZK8mIWvihNjDfT-P1Z-18" target="NoZK8mIWvihNjDfT-P1Z-64">
          <mxGeometry relative="1" as="geometry">
            <Array as="points">
              <mxPoint x="340" y="300" />
            </Array>
          </mxGeometry>
        </mxCell>
        <mxCell id="NoZK8mIWvihNjDfT-P1Z-79" style="edgeStyle=orthogonalEdgeStyle;rounded=0;orthogonalLoop=1;jettySize=auto;html=1;entryX=0;entryY=0.5;entryDx=0;entryDy=0;" edge="1" parent="WIyWlLk6GJQsqaUBKTNV-1" source="NoZK8mIWvihNjDfT-P1Z-18" target="NoZK8mIWvihNjDfT-P1Z-65">
          <mxGeometry relative="1" as="geometry">
            <Array as="points">
              <mxPoint x="340" y="400" />
            </Array>
          </mxGeometry>
        </mxCell>
        <mxCell id="NoZK8mIWvihNjDfT-P1Z-18" value="Reportes" style="rounded=0;whiteSpace=wrap;html=1;" vertex="1" parent="WIyWlLk6GJQsqaUBKTNV-1">
          <mxGeometry x="320" y="120" width="110" height="40" as="geometry" />
        </mxCell>
        <mxCell id="NoZK8mIWvihNjDfT-P1Z-27" style="edgeStyle=orthogonalEdgeStyle;rounded=0;orthogonalLoop=1;jettySize=auto;html=1;entryX=0.5;entryY=0;entryDx=0;entryDy=0;" edge="1" parent="WIyWlLk6GJQsqaUBKTNV-1" source="NoZK8mIWvihNjDfT-P1Z-20" target="NoZK8mIWvihNjDfT-P1Z-21">
          <mxGeometry relative="1" as="geometry" />
        </mxCell>
        <mxCell id="NoZK8mIWvihNjDfT-P1Z-20" value="Agrego nueva linea" style="rounded=0;whiteSpace=wrap;html=1;" vertex="1" parent="WIyWlLk6GJQsqaUBKTNV-1">
          <mxGeometry x="600" y="180" width="110" height="40" as="geometry" />
        </mxCell>
        <mxCell id="NoZK8mIWvihNjDfT-P1Z-28" style="edgeStyle=orthogonalEdgeStyle;rounded=0;orthogonalLoop=1;jettySize=auto;html=1;entryX=0.5;entryY=0;entryDx=0;entryDy=0;" edge="1" parent="WIyWlLk6GJQsqaUBKTNV-1" source="NoZK8mIWvihNjDfT-P1Z-21" target="NoZK8mIWvihNjDfT-P1Z-22">
          <mxGeometry relative="1" as="geometry" />
        </mxCell>
        <mxCell id="NoZK8mIWvihNjDfT-P1Z-21" value="Cargo datos" style="rounded=0;whiteSpace=wrap;html=1;" vertex="1" parent="WIyWlLk6GJQsqaUBKTNV-1">
          <mxGeometry x="600" y="240" width="110" height="40" as="geometry" />
        </mxCell>
        <mxCell id="NoZK8mIWvihNjDfT-P1Z-25" style="edgeStyle=orthogonalEdgeStyle;rounded=0;orthogonalLoop=1;jettySize=auto;html=1;entryX=0.5;entryY=0;entryDx=0;entryDy=0;" edge="1" parent="WIyWlLk6GJQsqaUBKTNV-1" source="NoZK8mIWvihNjDfT-P1Z-22" target="NoZK8mIWvihNjDfT-P1Z-23">
          <mxGeometry relative="1" as="geometry" />
        </mxCell>
        <mxCell id="NoZK8mIWvihNjDfT-P1Z-49" value="" style="edgeStyle=orthogonalEdgeStyle;rounded=0;orthogonalLoop=1;jettySize=auto;html=1;" edge="1" parent="WIyWlLk6GJQsqaUBKTNV-1" source="NoZK8mIWvihNjDfT-P1Z-22" target="NoZK8mIWvihNjDfT-P1Z-23">
          <mxGeometry relative="1" as="geometry" />
        </mxCell>
        <mxCell id="NoZK8mIWvihNjDfT-P1Z-22" value="Hago validaciones" style="rounded=0;whiteSpace=wrap;html=1;" vertex="1" parent="WIyWlLk6GJQsqaUBKTNV-1">
          <mxGeometry x="600" y="300" width="110" height="40" as="geometry" />
        </mxCell>
        <mxCell id="NoZK8mIWvihNjDfT-P1Z-24" style="edgeStyle=orthogonalEdgeStyle;rounded=0;orthogonalLoop=1;jettySize=auto;html=1;entryX=0;entryY=0.5;entryDx=0;entryDy=0;exitX=0;exitY=0.5;exitDx=0;exitDy=0;" edge="1" parent="WIyWlLk6GJQsqaUBKTNV-1" source="NoZK8mIWvihNjDfT-P1Z-23" target="NoZK8mIWvihNjDfT-P1Z-21">
          <mxGeometry relative="1" as="geometry" />
        </mxCell>
        <mxCell id="NoZK8mIWvihNjDfT-P1Z-45" value="No" style="edgeLabel;html=1;align=center;verticalAlign=middle;resizable=0;points=[];" vertex="1" connectable="0" parent="NoZK8mIWvihNjDfT-P1Z-24">
          <mxGeometry x="-0.8618" y="-1" relative="1" as="geometry">
            <mxPoint as="offset" />
          </mxGeometry>
        </mxCell>
        <mxCell id="NoZK8mIWvihNjDfT-P1Z-30" style="edgeStyle=orthogonalEdgeStyle;rounded=0;orthogonalLoop=1;jettySize=auto;html=1;entryX=0.5;entryY=0;entryDx=0;entryDy=0;" edge="1" parent="WIyWlLk6GJQsqaUBKTNV-1" source="NoZK8mIWvihNjDfT-P1Z-23" target="NoZK8mIWvihNjDfT-P1Z-29">
          <mxGeometry relative="1" as="geometry" />
        </mxCell>
        <mxCell id="NoZK8mIWvihNjDfT-P1Z-23" value="&lt;font style=&quot;font-size: 8px;&quot;&gt;ID Empleado habilitado?&lt;/font&gt;" style="rhombus;whiteSpace=wrap;html=1;" vertex="1" parent="WIyWlLk6GJQsqaUBKTNV-1">
          <mxGeometry x="615" y="360" width="80" height="80" as="geometry" />
        </mxCell>
        <mxCell id="NoZK8mIWvihNjDfT-P1Z-31" style="edgeStyle=orthogonalEdgeStyle;rounded=0;orthogonalLoop=1;jettySize=auto;html=1;" edge="1" parent="WIyWlLk6GJQsqaUBKTNV-1" source="NoZK8mIWvihNjDfT-P1Z-29">
          <mxGeometry relative="1" as="geometry">
            <mxPoint x="600" y="260" as="targetPoint" />
            <Array as="points">
              <mxPoint x="580" y="500" />
              <mxPoint x="580" y="260" />
            </Array>
          </mxGeometry>
        </mxCell>
        <mxCell id="NoZK8mIWvihNjDfT-P1Z-46" value="No" style="edgeLabel;html=1;align=center;verticalAlign=middle;resizable=0;points=[];" vertex="1" connectable="0" parent="NoZK8mIWvihNjDfT-P1Z-31">
          <mxGeometry x="-0.8828" y="-1" relative="1" as="geometry">
            <mxPoint as="offset" />
          </mxGeometry>
        </mxCell>
        <mxCell id="NoZK8mIWvihNjDfT-P1Z-29" value="&lt;font style=&quot;font-size: 8px;&quot;&gt;Equipo&lt;/font&gt;&lt;div&gt;&lt;font style=&quot;font-size: 8px;&quot;&gt;&amp;nbsp;habilitado para ese empleado?&lt;/font&gt;&lt;/div&gt;" style="rhombus;whiteSpace=wrap;html=1;" vertex="1" parent="WIyWlLk6GJQsqaUBKTNV-1">
          <mxGeometry x="615" y="460" width="80" height="80" as="geometry" />
        </mxCell>
        <mxCell id="NoZK8mIWvihNjDfT-P1Z-34" style="edgeStyle=orthogonalEdgeStyle;rounded=0;orthogonalLoop=1;jettySize=auto;html=1;entryX=0;entryY=0.5;entryDx=0;entryDy=0;" edge="1" parent="WIyWlLk6GJQsqaUBKTNV-1" source="NoZK8mIWvihNjDfT-P1Z-32" target="NoZK8mIWvihNjDfT-P1Z-21">
          <mxGeometry relative="1" as="geometry">
            <Array as="points">
              <mxPoint x="580" y="600" />
              <mxPoint x="580" y="260" />
            </Array>
          </mxGeometry>
        </mxCell>
        <mxCell id="NoZK8mIWvihNjDfT-P1Z-47" value="No" style="edgeLabel;html=1;align=center;verticalAlign=middle;resizable=0;points=[];" vertex="1" connectable="0" parent="NoZK8mIWvihNjDfT-P1Z-34">
          <mxGeometry x="-0.9004" y="1" relative="1" as="geometry">
            <mxPoint as="offset" />
          </mxGeometry>
        </mxCell>
        <mxCell id="NoZK8mIWvihNjDfT-P1Z-40" style="edgeStyle=orthogonalEdgeStyle;rounded=0;orthogonalLoop=1;jettySize=auto;html=1;entryX=0.5;entryY=0;entryDx=0;entryDy=0;" edge="1" parent="WIyWlLk6GJQsqaUBKTNV-1" source="NoZK8mIWvihNjDfT-P1Z-32" target="NoZK8mIWvihNjDfT-P1Z-37">
          <mxGeometry relative="1" as="geometry" />
        </mxCell>
        <mxCell id="NoZK8mIWvihNjDfT-P1Z-32" value="&lt;font style=&quot;font-size: 8px;&quot;&gt;Requerimiento&lt;/font&gt;&lt;div&gt;&lt;span style=&quot;background-color: initial; font-size: 8px;&quot;&gt;&amp;nbsp;habilitado para ese empleado?&lt;/span&gt;&lt;/div&gt;" style="rhombus;whiteSpace=wrap;html=1;" vertex="1" parent="WIyWlLk6GJQsqaUBKTNV-1">
          <mxGeometry x="615" y="560" width="80" height="80" as="geometry" />
        </mxCell>
        <mxCell id="NoZK8mIWvihNjDfT-P1Z-33" style="edgeStyle=orthogonalEdgeStyle;rounded=0;orthogonalLoop=1;jettySize=auto;html=1;entryX=0.504;entryY=-0.042;entryDx=0;entryDy=0;entryPerimeter=0;" edge="1" parent="WIyWlLk6GJQsqaUBKTNV-1" source="NoZK8mIWvihNjDfT-P1Z-29" target="NoZK8mIWvihNjDfT-P1Z-32">
          <mxGeometry relative="1" as="geometry" />
        </mxCell>
        <mxCell id="NoZK8mIWvihNjDfT-P1Z-35" value="&lt;font style=&quot;font-size: 8px;&quot;&gt;En caso en que un Admin/TL este cargando horas por otro empleado o se este haciendo carga masiva&lt;/font&gt;" style="rounded=0;whiteSpace=wrap;html=1;" vertex="1" parent="WIyWlLk6GJQsqaUBKTNV-1">
          <mxGeometry x="707" y="370" width="120" height="60" as="geometry" />
        </mxCell>
        <mxCell id="NoZK8mIWvihNjDfT-P1Z-36" value="&lt;font style=&quot;font-size: 8px;&quot;&gt;En caso en que se validen los requerimientos contra la tabla de requerimientos.&lt;/font&gt;" style="rounded=0;whiteSpace=wrap;html=1;" vertex="1" parent="WIyWlLk6GJQsqaUBKTNV-1">
          <mxGeometry x="707" y="570" width="120" height="60" as="geometry" />
        </mxCell>
        <mxCell id="NoZK8mIWvihNjDfT-P1Z-41" style="edgeStyle=orthogonalEdgeStyle;rounded=0;orthogonalLoop=1;jettySize=auto;html=1;entryX=0;entryY=0.5;entryDx=0;entryDy=0;" edge="1" parent="WIyWlLk6GJQsqaUBKTNV-1" source="NoZK8mIWvihNjDfT-P1Z-37" target="NoZK8mIWvihNjDfT-P1Z-21">
          <mxGeometry relative="1" as="geometry">
            <Array as="points">
              <mxPoint x="580" y="700" />
              <mxPoint x="580" y="260" />
            </Array>
          </mxGeometry>
        </mxCell>
        <mxCell id="NoZK8mIWvihNjDfT-P1Z-48" value="No" style="edgeLabel;html=1;align=center;verticalAlign=middle;resizable=0;points=[];" vertex="1" connectable="0" parent="NoZK8mIWvihNjDfT-P1Z-41">
          <mxGeometry x="-0.9013" relative="1" as="geometry">
            <mxPoint as="offset" />
          </mxGeometry>
        </mxCell>
        <mxCell id="NoZK8mIWvihNjDfT-P1Z-37" value="&lt;div style=&quot;&quot;&gt;&lt;font size=&quot;1&quot;&gt;Se alcanzo la cant de horas labor. por dia?&lt;/font&gt;&lt;/div&gt;" style="rhombus;whiteSpace=wrap;html=1;" vertex="1" parent="WIyWlLk6GJQsqaUBKTNV-1">
          <mxGeometry x="615" y="660" width="80" height="80" as="geometry" />
        </mxCell>
        <mxCell id="NoZK8mIWvihNjDfT-P1Z-38" value="&lt;font style=&quot;font-size: 8px;&quot;&gt;Las horas por dia laboral se deben configurar por Oficina. En el caso de un part time se cargaran horas a alguna tarea a definir por el proyecto&lt;/font&gt;" style="rounded=0;whiteSpace=wrap;html=1;" vertex="1" parent="WIyWlLk6GJQsqaUBKTNV-1">
          <mxGeometry x="710" y="670" width="120" height="70" as="geometry" />
        </mxCell>
        <mxCell id="NoZK8mIWvihNjDfT-P1Z-52" style="edgeStyle=orthogonalEdgeStyle;rounded=0;orthogonalLoop=1;jettySize=auto;html=1;entryX=0.5;entryY=0;entryDx=0;entryDy=0;" edge="1" parent="WIyWlLk6GJQsqaUBKTNV-1" source="NoZK8mIWvihNjDfT-P1Z-42" target="NoZK8mIWvihNjDfT-P1Z-51">
          <mxGeometry relative="1" as="geometry" />
        </mxCell>
        <mxCell id="NoZK8mIWvihNjDfT-P1Z-53" value="Si" style="edgeLabel;html=1;align=center;verticalAlign=middle;resizable=0;points=[];" vertex="1" connectable="0" parent="NoZK8mIWvihNjDfT-P1Z-52">
          <mxGeometry x="0.023" y="-1" relative="1" as="geometry">
            <mxPoint as="offset" />
          </mxGeometry>
        </mxCell>
        <mxCell id="NoZK8mIWvihNjDfT-P1Z-55" style="edgeStyle=orthogonalEdgeStyle;rounded=0;orthogonalLoop=1;jettySize=auto;html=1;entryX=0.5;entryY=0;entryDx=0;entryDy=0;" edge="1" parent="WIyWlLk6GJQsqaUBKTNV-1" source="NoZK8mIWvihNjDfT-P1Z-42" target="NoZK8mIWvihNjDfT-P1Z-54">
          <mxGeometry relative="1" as="geometry" />
        </mxCell>
        <mxCell id="NoZK8mIWvihNjDfT-P1Z-42" value="&lt;font style=&quot;font-size: 8px;&quot;&gt;Horas exceden&lt;/font&gt;&lt;div&gt;&lt;font style=&quot;font-size: 8px;&quot;&gt;&amp;nbsp;al dia laboral?&lt;/font&gt;&lt;/div&gt;" style="rhombus;whiteSpace=wrap;html=1;" vertex="1" parent="WIyWlLk6GJQsqaUBKTNV-1">
          <mxGeometry x="615" y="760" width="80" height="80" as="geometry" />
        </mxCell>
        <mxCell id="NoZK8mIWvihNjDfT-P1Z-43" value="&lt;font style=&quot;font-size: 8px;&quot;&gt;Horas extras. Ingresar justificacion.&lt;/font&gt;" style="rounded=0;whiteSpace=wrap;html=1;" vertex="1" parent="WIyWlLk6GJQsqaUBKTNV-1">
          <mxGeometry x="710" y="780" width="120" height="40" as="geometry" />
        </mxCell>
        <mxCell id="NoZK8mIWvihNjDfT-P1Z-44" style="edgeStyle=orthogonalEdgeStyle;rounded=0;orthogonalLoop=1;jettySize=auto;html=1;entryX=0.486;entryY=-0.036;entryDx=0;entryDy=0;entryPerimeter=0;" edge="1" parent="WIyWlLk6GJQsqaUBKTNV-1" source="NoZK8mIWvihNjDfT-P1Z-37" target="NoZK8mIWvihNjDfT-P1Z-42">
          <mxGeometry relative="1" as="geometry" />
        </mxCell>
        <mxCell id="NoZK8mIWvihNjDfT-P1Z-58" style="edgeStyle=orthogonalEdgeStyle;rounded=0;orthogonalLoop=1;jettySize=auto;html=1;entryX=0.5;entryY=0;entryDx=0;entryDy=0;" edge="1" parent="WIyWlLk6GJQsqaUBKTNV-1" source="NoZK8mIWvihNjDfT-P1Z-51" target="NoZK8mIWvihNjDfT-P1Z-54">
          <mxGeometry relative="1" as="geometry">
            <Array as="points">
              <mxPoint x="550" y="880" />
              <mxPoint x="655" y="880" />
            </Array>
          </mxGeometry>
        </mxCell>
        <mxCell id="NoZK8mIWvihNjDfT-P1Z-51" value="&lt;font style=&quot;font-size: 8px;&quot;&gt;Ingresar justificacion&lt;/font&gt;" style="rounded=0;whiteSpace=wrap;html=1;" vertex="1" parent="WIyWlLk6GJQsqaUBKTNV-1">
          <mxGeometry x="520" y="820" width="60" height="40" as="geometry" />
        </mxCell>
        <mxCell id="NoZK8mIWvihNjDfT-P1Z-57" style="edgeStyle=orthogonalEdgeStyle;rounded=0;orthogonalLoop=1;jettySize=auto;html=1;entryX=0.5;entryY=0;entryDx=0;entryDy=0;" edge="1" parent="WIyWlLk6GJQsqaUBKTNV-1" target="NoZK8mIWvihNjDfT-P1Z-56">
          <mxGeometry relative="1" as="geometry">
            <mxPoint x="655" y="980" as="sourcePoint" />
          </mxGeometry>
        </mxCell>
        <mxCell id="NoZK8mIWvihNjDfT-P1Z-61" style="edgeStyle=orthogonalEdgeStyle;rounded=0;orthogonalLoop=1;jettySize=auto;html=1;entryX=0;entryY=0.5;entryDx=0;entryDy=0;" edge="1" parent="WIyWlLk6GJQsqaUBKTNV-1" source="NoZK8mIWvihNjDfT-P1Z-54" target="NoZK8mIWvihNjDfT-P1Z-2">
          <mxGeometry relative="1" as="geometry">
            <Array as="points">
              <mxPoint x="500" y="940" />
              <mxPoint x="500" y="140" />
            </Array>
          </mxGeometry>
        </mxCell>
        <mxCell id="NoZK8mIWvihNjDfT-P1Z-54" value="&lt;font style=&quot;font-size: 8px;&quot;&gt;Grabar cambios?&lt;/font&gt;" style="rhombus;whiteSpace=wrap;html=1;" vertex="1" parent="WIyWlLk6GJQsqaUBKTNV-1">
          <mxGeometry x="615" y="900" width="80" height="80" as="geometry" />
        </mxCell>
        <mxCell id="NoZK8mIWvihNjDfT-P1Z-56" value="Grabar" style="rounded=0;whiteSpace=wrap;html=1;" vertex="1" parent="WIyWlLk6GJQsqaUBKTNV-1">
          <mxGeometry x="600" y="1020" width="110" height="30" as="geometry" />
        </mxCell>
        <mxCell id="NoZK8mIWvihNjDfT-P1Z-62" value="Horas empleado" style="rounded=0;whiteSpace=wrap;html=1;" vertex="1" parent="WIyWlLk6GJQsqaUBKTNV-1">
          <mxGeometry x="360" y="180" width="110" height="40" as="geometry" />
        </mxCell>
        <mxCell id="NoZK8mIWvihNjDfT-P1Z-63" value="Horas Requerimiento" style="rounded=0;whiteSpace=wrap;html=1;" vertex="1" parent="WIyWlLk6GJQsqaUBKTNV-1">
          <mxGeometry x="360" y="230" width="110" height="40" as="geometry" />
        </mxCell>
        <mxCell id="NoZK8mIWvihNjDfT-P1Z-64" value="Horas Equipo" style="rounded=0;whiteSpace=wrap;html=1;" vertex="1" parent="WIyWlLk6GJQsqaUBKTNV-1">
          <mxGeometry x="360" y="280" width="110" height="40" as="geometry" />
        </mxCell>
        <mxCell id="NoZK8mIWvihNjDfT-P1Z-72" style="edgeStyle=orthogonalEdgeStyle;rounded=0;orthogonalLoop=1;jettySize=auto;html=1;entryX=0;entryY=0.5;entryDx=0;entryDy=0;" edge="1" parent="WIyWlLk6GJQsqaUBKTNV-1" source="NoZK8mIWvihNjDfT-P1Z-65" target="NoZK8mIWvihNjDfT-P1Z-67">
          <mxGeometry relative="1" as="geometry">
            <Array as="points">
              <mxPoint x="380" y="500" />
            </Array>
          </mxGeometry>
        </mxCell>
        <mxCell id="NoZK8mIWvihNjDfT-P1Z-73" style="edgeStyle=orthogonalEdgeStyle;rounded=0;orthogonalLoop=1;jettySize=auto;html=1;entryX=0;entryY=0.5;entryDx=0;entryDy=0;" edge="1" parent="WIyWlLk6GJQsqaUBKTNV-1" source="NoZK8mIWvihNjDfT-P1Z-65" target="NoZK8mIWvihNjDfT-P1Z-66">
          <mxGeometry relative="1" as="geometry">
            <Array as="points">
              <mxPoint x="380" y="550" />
            </Array>
          </mxGeometry>
        </mxCell>
        <mxCell id="NoZK8mIWvihNjDfT-P1Z-74" style="edgeStyle=orthogonalEdgeStyle;rounded=0;orthogonalLoop=1;jettySize=auto;html=1;entryX=0;entryY=0.5;entryDx=0;entryDy=0;" edge="1" parent="WIyWlLk6GJQsqaUBKTNV-1" source="NoZK8mIWvihNjDfT-P1Z-65" target="NoZK8mIWvihNjDfT-P1Z-68">
          <mxGeometry relative="1" as="geometry">
            <Array as="points">
              <mxPoint x="380" y="600" />
            </Array>
          </mxGeometry>
        </mxCell>
        <mxCell id="NoZK8mIWvihNjDfT-P1Z-65" value="Horas Extras" style="rounded=0;whiteSpace=wrap;html=1;" vertex="1" parent="WIyWlLk6GJQsqaUBKTNV-1">
          <mxGeometry x="360" y="380" width="110" height="40" as="geometry" />
        </mxCell>
        <mxCell id="NoZK8mIWvihNjDfT-P1Z-66" value="Empleado" style="rounded=0;whiteSpace=wrap;html=1;fontSize=9;" vertex="1" parent="WIyWlLk6GJQsqaUBKTNV-1">
          <mxGeometry x="400" y="530" width="70" height="40" as="geometry" />
        </mxCell>
        <mxCell id="NoZK8mIWvihNjDfT-P1Z-67" value="Equipo" style="rounded=0;whiteSpace=wrap;html=1;fontSize=9;" vertex="1" parent="WIyWlLk6GJQsqaUBKTNV-1">
          <mxGeometry x="400" y="480" width="70" height="40" as="geometry" />
        </mxCell>
        <mxCell id="NoZK8mIWvihNjDfT-P1Z-68" value="&lt;font style=&quot;font-size: 9px;&quot;&gt;Requerimiento&lt;/font&gt;" style="rounded=0;whiteSpace=wrap;html=1;" vertex="1" parent="WIyWlLk6GJQsqaUBKTNV-1">
          <mxGeometry x="400" y="580" width="70" height="40" as="geometry" />
        </mxCell>
        <mxCell id="NoZK8mIWvihNjDfT-P1Z-69" value="&lt;font style=&quot;font-size: 9px;&quot;&gt;Oficina&lt;/font&gt;" style="rounded=0;whiteSpace=wrap;html=1;" vertex="1" parent="WIyWlLk6GJQsqaUBKTNV-1">
          <mxGeometry x="400" y="430" width="70" height="40" as="geometry" />
        </mxCell>
        <mxCell id="NoZK8mIWvihNjDfT-P1Z-70" value="Horas Oficina" style="rounded=0;whiteSpace=wrap;html=1;" vertex="1" parent="WIyWlLk6GJQsqaUBKTNV-1">
          <mxGeometry x="360" y="330" width="110" height="40" as="geometry" />
        </mxCell>
        <mxCell id="NoZK8mIWvihNjDfT-P1Z-71" style="edgeStyle=orthogonalEdgeStyle;rounded=0;orthogonalLoop=1;jettySize=auto;html=1;entryX=0.008;entryY=0.642;entryDx=0;entryDy=0;entryPerimeter=0;" edge="1" parent="WIyWlLk6GJQsqaUBKTNV-1" source="NoZK8mIWvihNjDfT-P1Z-65" target="NoZK8mIWvihNjDfT-P1Z-69">
          <mxGeometry relative="1" as="geometry">
            <Array as="points">
              <mxPoint x="380" y="456" />
            </Array>
          </mxGeometry>
        </mxCell>
        <mxCell id="NoZK8mIWvihNjDfT-P1Z-75" style="edgeStyle=orthogonalEdgeStyle;rounded=0;orthogonalLoop=1;jettySize=auto;html=1;entryX=0.005;entryY=0.606;entryDx=0;entryDy=0;entryPerimeter=0;" edge="1" parent="WIyWlLk6GJQsqaUBKTNV-1" source="NoZK8mIWvihNjDfT-P1Z-18" target="NoZK8mIWvihNjDfT-P1Z-62">
          <mxGeometry relative="1" as="geometry">
            <Array as="points">
              <mxPoint x="340" y="204" />
            </Array>
          </mxGeometry>
        </mxCell>
        <mxCell id="NoZK8mIWvihNjDfT-P1Z-78" style="edgeStyle=orthogonalEdgeStyle;rounded=0;orthogonalLoop=1;jettySize=auto;html=1;entryX=-0.008;entryY=0.582;entryDx=0;entryDy=0;entryPerimeter=0;" edge="1" parent="WIyWlLk6GJQsqaUBKTNV-1" source="NoZK8mIWvihNjDfT-P1Z-18" target="NoZK8mIWvihNjDfT-P1Z-70">
          <mxGeometry relative="1" as="geometry">
            <Array as="points">
              <mxPoint x="340" y="353" />
            </Array>
          </mxGeometry>
        </mxCell>
      </root>
    </mxGraphModel>
  </diagram>
</mxfile>
